<svg height="1566" width="720" xmlns="http://www.w3.org/2000/svg">
<rect height="1566" fill="#555" width="720"></rect>
<text fill="#7f7" font-family="Courier New" font-size="12" xml:space="preserve">
<tspan x="10" y="26">20 megabytes installed</tspan>
<tspan x="10" y="42"></tspan>
<tspan x="10" y="58">node_modules</tspan>
<tspan x="10" y="74">└─┬ gulp-vulcanize@6.1.0 </tspan>
<tspan x="10" y="90">  ├─┬ gulp-util@3.0.8 </tspan>
<tspan x="10" y="106">  │ ├── array-differ@1.0.0 </tspan>
<tspan x="10" y="122">  │ ├── array-uniq@1.0.3 </tspan>
<tspan x="10" y="138">  │ ├── beeper@1.1.1 </tspan>
<tspan x="10" y="154">  │ ├─┬ chalk@1.1.3 </tspan>
<tspan x="10" y="170">  │ │ ├── ansi-styles@2.2.1 </tspan>
<tspan x="10" y="186">  │ │ ├── escape-string-regexp@1.0.5 </tspan>
<tspan x="10" y="202">  │ │ ├─┬ has-ansi@2.0.0 </tspan>
<tspan x="10" y="218">  │ │ │ └── ansi-regex@2.1.1 </tspan>
<tspan x="10" y="234">  │ │ ├── strip-ansi@3.0.1 </tspan>
<tspan x="10" y="250">  │ │ └── supports-color@2.0.0 </tspan>
<tspan x="10" y="266">  │ ├── dateformat@2.0.0 </tspan>
<tspan x="10" y="282">  │ ├─┬ fancy-log@1.3.0 </tspan>
<tspan x="10" y="298">  │ │ └── time-stamp@1.0.1 </tspan>
<tspan x="10" y="314">  │ ├─┬ gulplog@1.0.0 </tspan>
<tspan x="10" y="330">  │ │ └── glogg@1.0.0 </tspan>
<tspan x="10" y="346">  │ ├─┬ has-gulplog@0.1.0 </tspan>
<tspan x="10" y="362">  │ │ └── sparkles@1.0.0 </tspan>
<tspan x="10" y="378">  │ ├── lodash._reescape@3.0.0 </tspan>
<tspan x="10" y="394">  │ ├── lodash._reevaluate@3.0.0 </tspan>
<tspan x="10" y="410">  │ ├── lodash._reinterpolate@3.0.0 </tspan>
<tspan x="10" y="426">  │ ├─┬ lodash.template@3.6.2 </tspan>
<tspan x="10" y="442">  │ │ ├── lodash._basecopy@3.0.1 </tspan>
<tspan x="10" y="458">  │ │ ├── lodash._basetostring@3.0.1 </tspan>
<tspan x="10" y="474">  │ │ ├── lodash._basevalues@3.0.0 </tspan>
<tspan x="10" y="490">  │ │ ├── lodash._isiterateecall@3.0.9 </tspan>
<tspan x="10" y="506">  │ │ ├─┬ lodash.escape@3.2.0 </tspan>
<tspan x="10" y="522">  │ │ │ └── lodash._root@3.0.1 </tspan>
<tspan x="10" y="538">  │ │ ├─┬ lodash.keys@3.1.2 </tspan>
<tspan x="10" y="554">  │ │ │ ├── lodash._getnative@3.9.1 </tspan>
<tspan x="10" y="570">  │ │ │ ├── lodash.isarguments@3.1.0 </tspan>
<tspan x="10" y="586">  │ │ │ └── lodash.isarray@3.0.4 </tspan>
<tspan x="10" y="602">  │ │ ├── lodash.restparam@3.6.1 </tspan>
<tspan x="10" y="618">  │ │ └── lodash.templatesettings@3.1.1 </tspan>
<tspan x="10" y="634">  │ ├── minimist@1.2.0 </tspan>
<tspan x="10" y="650">  │ ├─┬ multipipe@0.1.2 </tspan>
<tspan x="10" y="666">  │ │ └─┬ duplexer2@0.0.2 </tspan>
<tspan x="10" y="682">  │ │   └─┬ readable-stream@1.1.14 </tspan>
<tspan x="10" y="698">  │ │     └── string_decoder@0.10.31 </tspan>
<tspan x="10" y="714">  │ ├── object-assign@3.0.0 </tspan>
<tspan x="10" y="730">  │ ├── replace-ext@0.0.1 </tspan>
<tspan x="10" y="746">  │ └─┬ vinyl@0.5.3 </tspan>
<tspan x="10" y="762">  │   ├── clone@1.0.2 </tspan>
<tspan x="10" y="778">  │   └── clone-stats@0.0.1 </tspan>
<tspan x="10" y="794">  ├─┬ through2@2.0.3 </tspan>
<tspan x="10" y="810">  │ ├─┬ readable-stream@2.2.9 </tspan>
<tspan x="10" y="826">  │ │ ├── buffer-shims@1.0.0 </tspan>
<tspan x="10" y="842">  │ │ ├── core-util-is@1.0.2 </tspan>
<tspan x="10" y="858">  │ │ ├── inherits@2.0.3 </tspan>
<tspan x="10" y="874">  │ │ ├── isarray@1.0.0 </tspan>
<tspan x="10" y="890">  │ │ ├── process-nextick-args@1.0.7 </tspan>
<tspan x="10" y="906">  │ │ ├── string_decoder@1.0.0 </tspan>
<tspan x="10" y="922">  │ │ └── util-deprecate@1.0.2 </tspan>
<tspan x="10" y="938">  │ └── xtend@4.0.1 </tspan>
<tspan x="10" y="954">  └─┬ vulcanize@1.15.4 </tspan>
<tspan x="10" y="970">    ├─┬ dom5@1.3.6 </tspan>
<tspan x="10" y="986">    │ ├── @types/clone@0.1.30 </tspan>
<tspan x="10" y="1002">    │ ├── @types/node@4.2.6 </tspan>
<tspan x="10" y="1018">    │ ├─┬ @types/parse5@0.0.31 </tspan>
<tspan x="10" y="1034">    │ │ └── @types/node@6.0.70 </tspan>
<tspan x="10" y="1050">    │ └── parse5@1.5.1 </tspan>
<tspan x="10" y="1066">    ├── es6-promise@2.3.0 </tspan>
<tspan x="10" y="1082">    ├─┬ hydrolysis@1.24.1 </tspan>
<tspan x="10" y="1098">    │ ├─┬ babel-polyfill@6.23.0 </tspan>
<tspan x="10" y="1114">    │ │ ├── babel-runtime@6.23.0 </tspan>
<tspan x="10" y="1130">    │ │ ├── core-js@2.4.1 </tspan>
<tspan x="10" y="1146">    │ │ └── regenerator-runtime@0.10.3 </tspan>
<tspan x="10" y="1162">    │ ├─┬ doctrine@0.7.2 </tspan>
<tspan x="10" y="1178">    │ │ ├── esutils@1.1.6 </tspan>
<tspan x="10" y="1194">    │ │ └── isarray@0.0.1 </tspan>
<tspan x="10" y="1210">    │ ├─┬ escodegen@1.8.1 </tspan>
<tspan x="10" y="1226">    │ │ ├── esprima@2.7.3 </tspan>
<tspan x="10" y="1242">    │ │ ├── estraverse@1.9.3 </tspan>
<tspan x="10" y="1258">    │ │ ├── esutils@2.0.2 </tspan>
<tspan x="10" y="1274">    │ │ ├─┬ optionator@0.8.2 </tspan>
<tspan x="10" y="1290">    │ │ │ ├── deep-is@0.1.3 </tspan>
<tspan x="10" y="1306">    │ │ │ ├── fast-levenshtein@2.0.6 </tspan>
<tspan x="10" y="1322">    │ │ │ ├── levn@0.3.0 </tspan>
<tspan x="10" y="1338">    │ │ │ ├── prelude-ls@1.1.2 </tspan>
<tspan x="10" y="1354">    │ │ │ ├── type-check@0.3.2 </tspan>
<tspan x="10" y="1370">    │ │ │ └── wordwrap@1.0.0 </tspan>
<tspan x="10" y="1386">    │ │ └─┬ source-map@0.2.0 </tspan>
<tspan x="10" y="1402">    │ │   └── amdefine@1.0.1 </tspan>
<tspan x="10" y="1418">    │ ├─┬ espree@3.4.1 </tspan>
<tspan x="10" y="1434">    │ │ ├── acorn@5.0.3 </tspan>
<tspan x="10" y="1450">    │ │ └─┬ acorn-jsx@3.0.1 </tspan>
<tspan x="10" y="1466">    │ │   └── acorn@3.3.0 </tspan>
<tspan x="10" y="1482">    │ ├── estraverse@3.1.0 </tspan>
<tspan x="10" y="1498">    │ └── path-is-absolute@1.0.1 </tspan>
<tspan x="10" y="1514">    ├─┬ nopt@3.0.6 </tspan>
<tspan x="10" y="1530">    │ └── abbrev@1.1.0 </tspan>
<tspan x="10" y="1546">    └── path-posix@1.0.0</tspan>
</text>
</svg>
